<svg width="44" height="44" viewBox="0 0 44 44" fill="none" xmlns="http://www.w3.org/2000/svg">
<circle cx="22" cy="22" r="22" fill="black"/>
<g clip-path="url(#clip0_96812_20)">
<rect width="20" height="20" transform="translate(12 12)" fill="black" fill-opacity="0.2"/>
<path d="M30.125 14.5H13.875C12.8411 14.5 12 15.3411 12 16.375V27.625C12 28.659 12.8411 29.5 13.875 29.5H30.125C31.1589 29.5 32 28.659 32 27.625V16.375C32 15.3411 31.1589 14.5 30.125 14.5ZM30.125 15.75C30.2099 15.75 30.2907 15.7676 30.3645 15.7984L22 23.048L13.6354 15.7984C13.7093 15.7677 13.7901 15.75 13.875 15.75H30.125ZM30.125 28.25H13.875C13.5302 28.25 13.25 27.9699 13.25 27.625V17.119L21.5904 24.3474C21.7083 24.4493 21.8541 24.5 22 24.5C22.1459 24.5 22.2917 24.4494 22.4096 24.3474L30.75 17.119V27.625C30.75 27.9699 30.4698 28.25 30.125 28.25Z" fill="white"/>
</g>
<defs>
<clipPath id="clip0_96812_20">
<rect width="20" height="20" fill="white" transform="translate(12 12)"/>
</clipPath>
</defs>
</svg>
