<svg width="44" height="44" viewBox="0 0 44 44" fill="none" xmlns="http://www.w3.org/2000/svg">
<path d="M26.5862 12H17.4138C14.4286 12 12 14.4286 12 17.4138V26.5863C12 29.5714 14.4286 32 17.4138 32H26.5863C29.5714 32 32 29.5714 32 26.5863V17.4138C32 14.4286 29.5714 12 26.5862 12V12ZM30.8275 26.5863C30.8275 28.9249 28.9249 30.8275 26.5862 30.8275H17.4138C15.0751 30.8275 13.1725 28.9249 13.1725 26.5863V17.4138C13.1725 15.0751 15.0751 13.1725 17.4138 13.1725H26.5863C28.9249 13.1725 30.8275 15.0751 30.8275 17.4138V26.5863Z" fill="black"/>
<path d="M22.0001 16.5312C18.9846 16.5312 16.5315 18.9844 16.5315 21.9998C16.5315 25.0153 18.9846 27.4684 22.0001 27.4684C25.0155 27.4684 27.4687 25.0153 27.4687 21.9998C27.4687 18.9844 25.0155 16.5312 22.0001 16.5312ZM22.0001 26.2959C19.6313 26.2959 17.704 24.3688 17.704 21.9998C17.704 19.6311 19.6313 17.7037 22.0001 17.7037C24.369 17.7037 26.2962 19.6311 26.2962 21.9998C26.2962 24.3688 24.369 26.2959 22.0001 26.2959Z" fill="black"/>
<path d="M27.5993 14.5894C26.7082 14.5894 25.9834 15.3143 25.9834 16.2053C25.9834 17.0964 26.7082 17.8213 27.5993 17.8213C28.4904 17.8213 29.2154 17.0964 29.2154 16.2053C29.2154 15.3141 28.4904 14.5894 27.5993 14.5894ZM27.5993 16.6487C27.3549 16.6487 27.1559 16.4497 27.1559 16.2053C27.1559 15.9607 27.3549 15.7618 27.5993 15.7618C27.8439 15.7618 28.0429 15.9607 28.0429 16.2053C28.0429 16.4497 27.8439 16.6487 27.5993 16.6487Z" fill="black"/>
<circle cx="22" cy="22" r="21.5" stroke="black"/>
</svg>
