<svg width="44" height="44" viewBox="0 0 44 44" fill="none" xmlns="http://www.w3.org/2000/svg">
<g clip-path="url(#clip0_96812_19)">
<path d="M23.2717 12C17.7892 12.0008 14.875 15.5133 14.875 19.3433C14.875 21.1192 15.8675 23.335 17.4567 24.0375C17.91 24.2417 17.85 23.9925 18.24 22.5008C18.2708 22.3767 18.255 22.2692 18.155 22.1533C15.8833 19.5258 17.7117 14.1242 22.9475 14.1242C30.525 14.1242 29.1092 24.6092 24.2658 24.6092C23.0175 24.6092 22.0875 23.6292 22.3817 22.4167C22.7383 20.9725 23.4367 19.42 23.4367 18.3792C23.4367 15.7558 19.5283 16.145 19.5283 19.6208C19.5283 20.695 19.9083 21.42 19.9083 21.42C19.9083 21.42 18.6508 26.5 18.4175 27.4492C18.0225 29.0558 18.4708 31.6567 18.51 31.8808C18.5342 32.0042 18.6725 32.0433 18.75 31.9417C18.8742 31.7792 20.3942 29.6108 20.82 28.0433C20.975 27.4725 21.6108 25.1558 21.6108 25.1558C22.03 25.9125 23.2383 26.5458 24.5258 26.5458C28.3558 26.5458 31.1242 23.1792 31.1242 19.0017C31.1108 14.9967 27.6833 12 23.2717 12V12Z" fill="black"/>
</g>
<circle cx="22" cy="22" r="21.5" stroke="black"/>
<defs>
<clipPath id="clip0_96812_19">
<rect width="20" height="20" fill="white" transform="translate(13 12)"/>
</clipPath>
</defs>
</svg>
