<svg width="33" height="30" viewBox="0 0 33 30" fill="none" xmlns="http://www.w3.org/2000/svg">
<path d="M9.05406 20.5405C10.5856 20.5405 11.7568 20.991 12.5676 21.8919C13.4685 22.7027 13.9189 23.8288 13.9189 25.2703C13.9189 28.4234 12.0721 30 8.37838 30C5.76577 30 3.69369 29.0541 2.16216 27.1622C0.720721 25.1802 0 22.3874 0 18.7838C0 15.2703 0.765766 12.027 2.2973 9.05405C3.91892 6.08108 6.26126 3.10811 9.32433 0.135133C9.41442 0.0450445 9.54955 0 9.72973 0C10 0 10.2252 0.135133 10.4054 0.4054C10.5856 0.675672 10.5856 0.900897 10.4054 1.08108C5.99099 5.58558 3.78378 10.9009 3.78378 17.027C3.78378 19.3694 4.23423 21.2162 5.13514 22.5676C5.85586 21.2162 7.16216 20.5405 9.05406 20.5405ZM27.973 20.5405C29.5045 20.5405 30.6757 20.991 31.4865 21.8919C32.3874 22.7027 32.8378 23.8288 32.8378 25.2703C32.8378 28.4234 30.991 30 27.2973 30C24.6847 30 22.6126 29.0541 21.0811 27.1622C19.6396 25.1802 18.9189 22.3874 18.9189 18.7838C18.9189 15.2703 19.6847 12.027 21.2162 9.05405C22.8378 6.08108 25.1802 3.10811 28.2433 0.135133C28.3333 0.0450445 28.4685 0 28.6487 0C28.9189 0 29.1442 0.135133 29.3243 0.4054C29.5045 0.675672 29.5045 0.900897 29.3243 1.08108C24.9099 5.58558 22.7027 10.9009 22.7027 17.027C22.7027 19.3694 23.1532 21.2162 24.0541 22.5676C24.7748 21.2162 26.0811 20.5405 27.973 20.5405Z" fill="black"/>
</svg>
